<svg width="251" height="147" viewBox="0 0 251 147" fill="none" xmlns="http://www.w3.org/2000/svg">
<g clip-path="url(#clip0_1109_188)">
<path d="M116.376 4.56927C115.454 -1.88495 112.578 -0.595865 108.309 2.88502C95.2885 13.5021 87.5044 28.5653 79.3226 42.9524C68.5823 61.8384 59.6166 81.6128 49.3606 100.749C42.1778 114.151 33.4576 129.545 20.1965 137.891C12.467 142.756 2.74133 140.488 0.606019 130.711C-2.14061 118.134 4.86231 105.749 13.2822 97.0257C25.5599 84.3051 40.3026 79.674 56.7181 74.5986C62.0489 72.9505 69.279 71.6114 73.2947 67.5957" stroke="#705A66" stroke-width="3" stroke-linecap="round"/>
<path d="M97.2289 23.7168C94.9521 24.286 91.9689 30.0676 91.0238 31.6062C84.2541 42.6265 79.1365 54.8562 74.0483 66.7095C63.2558 91.8512 54.7615 117.754 47.7651 144.185" stroke="#705A66" stroke-width="3" stroke-linecap="round"/>
<path d="M74.0925 112.273C92.8714 101.374 110.718 87.6972 125.95 72.1609C130.165 67.8608 140.487 58.9757 140.487 52.1715C140.487 45.2671 126.261 57.8892 125.772 58.3323C107.083 75.2912 89.6879 96.9492 82.5138 121.58C81.8854 123.738 79.6898 133.091 85.1731 129.558C90.6681 126.018 95.4475 119.843 98.4698 114.134C104.386 102.96 90.019 110.086 86.2812 113.824C84.9646 115.14 82.6527 118.251 84.9958 119.896C88.4294 122.307 94.7675 118.719 97.805 117.325C104.521 114.244 111.332 111.262 117.883 107.84C119.833 106.822 124.846 102.947 123.778 104.871C122.287 107.555 116.497 115.827 123.734 115.198C127.834 114.841 131.696 111.876 135.124 109.879C138.074 108.162 145.324 105.265 145.806 101.103C146.771 92.7816 129.594 100.028 127.457 102.699C125.84 104.72 125.437 107.717 127.767 109.347C131.242 111.78 136.324 109.64 139.778 108.284C145.099 106.195 150.108 103.321 155.247 100.837C157.545 99.7265 161.505 97.2014 164.067 99.0646C166.743 101.011 162.456 106.845 167.613 105.536C171.285 104.603 175.197 102.785 178.516 101.015C179.511 100.484 184.802 95.926 186.051 96.4939C186.78 96.8254 185.007 97.9168 185.12 98.71C185.44 100.951 189.827 99.7178 191.015 99.3305C202.949 95.4391 212.416 82.3892 220.09 73.1803" stroke="#705A66" stroke-width="3" stroke-linecap="round"/>
<path d="M230.462 56.4264C230.102 54.8055 215.498 73.064 213.93 75.7066C207.43 86.6575 201.964 98.1901 196.954 109.879" stroke="#705A66" stroke-width="3" stroke-linecap="round"/>
<path d="M200.943 69.1914C215.337 71.1008 229.677 73.3475 244.024 75.5738" stroke="#705A66" stroke-width="3" stroke-linecap="round"/>
<path d="M153.075 133.016C156.635 127.514 156.77 136.166 156.621 138.556C156.471 140.952 155.381 144.308 155.823 146.667C156.15 148.414 162.4 141.92 162.649 141.614C165.8 137.746 168.502 133.135 172.931 130.534C175.162 129.223 175.103 132.014 175.502 133.459C177.802 141.796 187.843 137.264 192.478 133.725C194.54 132.15 200.907 123.241 202.361 128.052C204.922 136.521 216.588 130.831 220.356 126.633C228.053 118.059 215.326 114.872 214.594 122.644C213.368 135.674 246.178 123.473 251.205 121.847" stroke="#705A66" stroke-width="3" stroke-linecap="round"/>
</g>
<defs>
<clipPath id="clip0_1109_188">
<rect width="251" height="147" fill="white"/>
</clipPath>
</defs>
</svg>
