<svg width="472" height="166" viewBox="0 0 472 166" fill="none" xmlns="http://www.w3.org/2000/svg">
<path d="M51.8252 68.5367C51.9375 69.882 49.6461 70.9945 48.0049 72.1069C46.9781 72.7887 46.2875 72.9547 45.2069 73.641C44.4671 74.5156 44.2115 74.6995 43.6823 74.852C42.9379 75.0225 42.8123 74.8163 42.2383 74.4307C41.4894 74.5474 40.4042 74.5296 39.44 74.6643C34.6283 75.4453 31.839 75.7865 27.0273 76.5676C24.0856 77.0299 21.5833 77.5639 19.5474 77.8423C19.023 79.3491 18.8168 80.125 18.7767 81.5914C18.7186 82.8426 19.1447 83.4031 19.0372 84.7125C18.979 85.3135 18.4993 86.058 18.0688 86.0939C17.1002 86.1748 16.3511 84.991 16.2298 83.538C16.0502 82.0358 16.2517 79.9056 16.4533 78.4257C14.4039 78.5426 12.9151 78.8837 11.6281 79.0453C8.8971 79.4359 7.14823 79.907 5.96884 80.0596C4.83877 80.154 4.10327 79.7819 3.97748 78.2751C3.9011 77.3603 4.79795 77.0687 6.2464 76.8936C6.83835 76.8441 7.49308 76.8979 8.19265 76.8395C11.3138 76.5789 15.2555 75.7621 16.973 75.5646C17.3001 73.6407 17.9992 70.331 19.2228 66.1648C20.3613 62.2766 21.1502 60.0432 22.0556 56.608C23.3732 51.6211 25.4709 44.2932 27.8924 44.091C29.7221 43.9383 30.2606 46.4943 30.9876 50.01C31.5082 52.3508 32.2575 55.4854 32.7915 57.3374C33.8638 61.0952 36.8512 66.3729 37.2775 68.2339C37.5378 69.4043 37.8609 70.6779 37.8252 72.1981C38.7894 72.0634 39.4845 71.9512 40.2916 71.8838C41.5831 71.776 42.3859 71.6548 43.5921 71.1748C45.166 70.5557 45.9418 70.1116 47.3408 69.3445C48.5291 68.6493 49.52 67.537 50.381 67.4651C51.0268 67.4112 51.7218 67.299 51.8252 68.5367ZM35.0266 69.8307C34.5689 68.2433 33.8332 66.5707 33.0796 64.6829C31.8369 61.4811 30.4328 58.2929 29.4994 54.2525C28.9833 51.9655 28.3462 49.5261 27.6196 48.6114C26.1806 52.1453 25.5755 53.9841 24.4594 57.4911C23.3433 60.9981 22.1868 64.671 21.4294 67.9313C20.7034 70.9181 20.3271 73.5505 19.9596 74.9901C22.3273 74.7924 24.2332 74.254 26.2646 73.9219C30.9731 73.2036 32.7983 72.9971 35.036 72.5393C35.2197 71.4944 35.3317 70.889 35.0266 69.8307ZM68.6836 60.6267C69.1688 66.4385 68.12 70.7527 67.5194 72.6452C67.8558 72.7797 68.3581 72.9545 68.6586 73.3088C69.5646 74.4253 67.2553 75.9727 66.3988 76.0984C65.9728 76.1882 64.6588 76.0269 64.327 75.9463C61.9414 77.2292 59.4751 78.1937 57.5917 78.351C55.493 78.5262 53.1519 77.096 52.9452 74.6206C52.752 72.3066 56.7646 65.1982 60.9082 64.8522C62.684 64.704 64.5947 66.8204 65.6982 69.0041C66.0567 67.4569 66.3254 64.8335 66.0199 61.1742C65.8357 58.9679 63.1759 55.6677 60.862 55.8609C58.2789 56.0766 58.9339 57.4308 57.6424 57.5386C56.6199 57.6239 56.1354 56.3639 56.1175 56.1486C56.0051 54.8033 58.6373 53.2289 60.5745 53.0671C63.9647 52.7841 68.3376 56.4831 68.6836 60.6267ZM64.0484 72.6099C63.8058 69.704 62.4961 67.6458 60.8279 67.7851C58.6215 67.9693 55.5146 72.943 55.7973 74.3825C55.9813 75.2883 57.4388 75.8711 57.7079 75.8486C59.4837 75.7004 61.6361 74.8704 63.923 73.7041C63.8871 73.2736 64.0844 73.0404 64.0484 72.6099ZM95.3902 66.5253C95.5385 68.3011 94.4669 69.7453 92.8617 71.2882C90.8081 73.302 87.8486 74.8496 85.3732 75.0562C84.8351 75.1012 84.0726 74.4062 83.7407 73.6753C83.2113 72.5273 83.8255 70.7962 84.4577 70.5809C84.9331 70.4328 85.1036 71.1772 85.292 71.4866C85.6733 72.1592 85.3818 72.5629 86.0276 72.509C86.1352 72.5 89.0903 71.5488 90.4938 70.1854C91.5474 69.1762 92.6908 67.9428 92.6189 67.0818C92.4931 65.575 89.1433 65.6921 87.7396 65.7551C85.4167 65.8407 84.6275 66.1233 83.336 66.2311C82.2597 66.321 81.143 65.9265 81.0397 64.6888C80.9543 63.6664 83.4921 60.9619 84.5277 58.437C85.1597 56.9211 85.9399 55.8806 85.8276 54.5353C85.7826 53.9972 85.4283 53.6474 84.8857 53.6386C84.1816 53.6431 82.7515 55.9842 81.9534 57.4598C80.9671 59.2761 79.7612 61.7069 79.2815 63.1016C78.6451 65.2139 78.197 67.6355 77.8385 69.1827C77.3858 70.9004 76.2471 73.4881 75.1126 73.5286C74.4085 73.5332 73.7178 73.049 73.5518 72.3584C73.2377 71.1925 73.4619 70.6319 73.6411 69.5332C73.995 67.2819 74.1199 62.9364 74.1419 59.9543C74.1686 58.3264 73.7333 56.3578 73.621 55.0125C73.531 53.286 73.7193 52.9451 74.6161 52.6535C75.8807 52.2228 76.2443 54.6309 76.3835 55.6489C76.949 59.178 77.1736 61.2184 77.1738 62.5189C77.2141 62.353 78.5276 59.263 80.016 56.321C81.6434 53.0964 83.7373 50.9167 84.975 50.8133C85.5669 50.7639 87.9706 50.9967 88.2222 54.0103C88.2851 54.7636 88.3077 56.3332 86.9853 59.3156C86.4787 60.3874 85.7525 62.0737 84.932 63.2801C86.0576 63.132 87.1383 63.0959 88.4926 63.0912C91.5286 63.1087 95.1476 63.6194 95.3902 66.5253ZM113.878 56.8537C114.363 62.6655 113.314 66.9797 112.714 68.8722C113.05 69.0067 113.552 69.1815 113.853 69.5357C114.759 70.6522 112.45 72.1997 111.593 72.3254C111.167 72.4152 109.853 72.2539 109.521 72.1733C107.136 73.4562 104.669 74.4207 102.786 74.5779C100.687 74.7531 98.3462 73.3229 98.1396 70.8476C97.9464 68.5336 101.959 61.4251 106.102 61.0792C107.878 60.931 109.789 63.0473 110.893 65.2311C111.251 63.6839 111.52 61.0605 111.214 57.4012C111.03 55.1949 108.37 51.8947 106.056 52.0879C103.473 52.3035 104.128 53.6577 102.837 53.7656C101.814 53.8509 101.33 52.5909 101.312 52.3756C101.199 51.0303 103.832 49.4559 105.769 49.2941C109.159 49.0111 113.532 52.7101 113.878 56.8537ZM109.243 68.8369C109 65.931 107.69 63.8728 106.022 64.0121C103.816 64.1963 100.709 69.17 100.992 70.6095C101.176 71.5153 102.633 72.0981 102.902 72.0756C104.678 71.9273 106.83 71.0974 109.117 69.9311C109.081 69.5006 109.279 69.2674 109.243 68.8369ZM149.271 36.342C149.352 37.3107 148.352 37.6651 144.63 39.1679C141.9 40.2087 138.075 41.1241 135.007 41.3802C132.478 41.5914 127.115 41.6056 126.917 39.2379C126.867 38.6459 127.446 37.7848 128.522 37.695C128.899 37.6635 130.594 39.1476 135.383 38.7478C138.558 38.4827 140.697 38.1416 143.863 37.1186C146.236 36.3245 147.518 35.4588 148.217 35.4004C148.594 35.369 149.222 35.7501 149.271 36.342ZM139.211 55.389C139.27 56.7388 138.763 58.4609 138.598 60.3713C138.423 62.1741 138.334 63.6988 138.28 65.0038C138.181 66.4209 138.563 67.7438 138.563 68.394C138.469 69.2147 137.94 70.0175 136.801 70.0042C135.657 69.9371 135.119 68.6816 135.141 67.6501C135.231 66.7756 135.213 65.2599 135.351 63.0266C135.526 61.2238 135.808 59.4121 135.965 58.6945C134.485 60.4437 132.956 62.2512 130.97 64.4219C127.509 68.3957 123.594 72.1363 120.877 72.0381C119.738 72.0248 118.796 71.128 118.697 69.9442C118.562 68.3298 118.903 65.9171 119.431 61.8631C120.009 57.7507 121.035 53.8177 121.843 53.7503C122.65 53.6829 123.578 53.768 123.596 54.6335C123.659 56.0371 122.709 57.6337 122.279 60.9209C121.92 63.1183 121.414 67.4414 121.446 67.8181C121.504 68.5177 121.823 69.0872 122.307 69.0467C123.872 68.9703 127.589 64.8126 129.427 62.8167C131.521 60.637 133.324 58.2106 134.696 56.4704C136.26 54.4432 137.09 53.3444 137.731 53.2367C138.852 53.0347 139.171 54.2545 139.211 55.389ZM171.251 45.9949C171.296 47.1833 168.758 47.9371 164.722 49.5745C162.206 50.5973 158.583 51.9836 154.444 52.3833C152.135 52.6303 150.561 52.5991 148.489 52.447C146.686 52.2724 144.793 52.322 144.677 50.9228C144.618 50.2233 145.282 49.7344 145.977 49.6221C147.103 49.474 147.887 49.7878 149.251 49.8907C151.596 50.0742 153.861 49.9394 154.56 49.881C155.529 49.8001 159.619 48.8084 163.681 47.4939C166.004 46.7581 169.067 45.1477 170.085 45.0085C170.618 44.9098 171.206 45.4568 171.251 45.9949ZM153.781 54.8229C153.579 55.6526 153.005 57.868 152.75 59.3524C152.401 61.6575 152.378 63.3391 152.518 64.3571C152.751 66.5051 153.388 66.9938 153.424 67.4243C153.482 68.1239 152.908 69.0388 152.07 69.3797C150.599 69.936 149.697 68.2231 149.531 66.232C149.473 65.5325 149.351 61.4785 150.059 58.2765C150.606 55.7383 151.305 53.7291 152.166 53.6572C152.973 53.5898 153.938 54.1054 153.781 54.8229ZM186.811 48.7058C186.955 50.4278 185.592 52.2756 183.243 53.989C181.763 55.0879 179.144 56.1735 178.014 56.2679C176.184 56.4206 175.409 56.2144 174.516 55.9096C173.911 57.0981 173.073 59.3898 173.234 61.327C173.49 64.3944 176.769 65.367 178.975 65.1828C181.935 64.9357 183.531 63.2852 184.562 63.3075C185.105 63.3164 185.459 63.6661 185.612 64.1952C186.029 65.9486 180.527 67.5459 178.536 67.7121C173.424 68.1389 170.715 64.8971 170.391 61.0225C170.297 59.8925 170.763 56.3855 172.076 53.9458C173.246 51.7348 175.094 49.1963 177.062 47.4605C178.726 45.967 180.497 45.1146 182.165 44.9754C184.156 44.8092 186.582 45.9613 186.811 48.7058ZM184.318 48.6972C184.354 47.8272 183.425 47.0919 182.569 47.2175C181.659 47.3477 179.591 48.5499 178.139 49.9717C176.986 51.0974 176.601 51.6715 175.7 53.2098C176.274 53.5954 176.875 53.6536 177.144 53.6311C178.543 53.5143 180.386 52.8728 181.467 52.1865C183.426 50.9933 184.273 49.4595 184.318 48.6972ZM224.858 42.3866C224.961 43.6243 224.114 45.1581 222.312 46.9342C221.159 48.06 219.146 49.9079 219.24 50.3877C219.334 50.8675 220.958 51.4906 221.801 51.8537C223.994 52.8086 225.322 54.4317 225.448 55.9385C225.569 57.3914 224.085 59.737 222.341 61.5625C220.085 63.7557 217.215 65.0791 215.067 65.3126C214.475 65.362 213.758 65.2051 213.43 64.528C213.049 63.8554 213.412 63.0123 214.134 62.5727C214.601 62.317 214.883 62.456 215.48 62.4604C217.049 62.4377 219.3 60.8409 220.457 59.769C221.919 58.4548 222.829 57.0241 222.694 56.06C222.591 55.4725 221.447 54.7552 220.026 53.9527C218.2 52.8588 216.321 52.4196 216.137 50.2132C216.025 48.8679 218.217 47.2218 219.881 45.7282C221.042 44.7101 222.006 43.9252 221.925 42.9565C221.871 42.3108 220.992 42.1674 220.347 42.2213C218.571 42.3696 217.468 42.7868 215.867 43.7332C214.629 44.4868 214.199 45.173 213.029 46.0835C212.517 46.4513 212.405 47.0567 211.701 47.0613C210.885 47.0211 210.262 46.6938 210.167 45.5638C210.105 44.8104 213.355 42.2089 215.432 41.1144C217.405 40.0827 218.777 39.643 221.144 39.4453C223.997 39.2072 224.782 41.4717 224.858 42.3866ZM247.235 47.3461C247.545 51.0592 245.402 55.248 243.703 56.9613C242.053 58.6163 239.681 61.3612 238.259 61.2089C237.546 61.1059 237.25 60.8054 237.165 59.783C237.147 59.5678 239.761 57.7781 241.819 55.1678C243.532 52.9657 244.702 50.1044 244.473 47.36C244.365 46.0685 244.235 44.5079 243.208 44.5394C242.288 44.562 240.643 46.9211 238.616 50.5583C236.204 54.7695 234.797 58.6802 233.407 62.1558C232.368 67.8782 232.018 71.4837 231.975 77.4481C231.943 79.0221 231.903 79.188 231.984 80.1567C232.069 81.1791 231.186 82.2824 230.101 82.2646C229.015 82.2469 228.28 81.2245 228.298 80.1393C228.297 78.1885 228.655 71.4394 229.174 65.9772C229.452 62.8112 229.896 60.9859 230.115 57.7705C230.419 52.9766 230.853 47.7925 231.682 42.7922C232.475 38.0117 233.613 30.8723 235.228 30.7375C235.604 30.706 236.394 31.0736 236.443 31.6656C236.564 33.1185 235.982 34.5761 235.359 37.5C234.861 39.98 234.31 43.765 233.934 46.3974C233.419 50.6129 232.953 55.4203 232.868 56.9988C234.281 54.4425 235.652 51.4018 237.154 48.6212C239.36 44.5355 241.638 41.3109 243.198 41.1806C246.319 40.92 247.01 44.6555 247.235 47.3461ZM270.912 47.4828C271.132 50.1196 269.895 53.4741 267.187 56.0845C264.896 58.4975 261.062 60.6058 258.371 60.8304C254.712 61.1359 252.128 57.45 251.805 53.5755C251.63 51.4768 251.881 49.9386 252.239 48.3914C252.961 45.3508 253.969 41.8528 256.122 41.6731C257.144 41.5878 257.274 42.4981 258.534 42.6638C259.906 41.5739 261.382 40.4212 263.427 40.2505C267.732 39.8911 270.724 45.2226 270.912 47.4828ZM268.154 48.2007C267.862 44.7029 265.266 42.8063 263.436 42.9591C262.091 43.0714 260.651 44.0044 259.893 44.6637C260.037 45.0852 259.997 45.9014 259.705 46.305C259.333 47.0405 258.495 47.3815 257.634 47.4534C256.934 47.5118 256.293 46.9692 255.867 46.4087C254.8 47.9067 254.482 51.889 254.621 53.5572C254.828 56.0325 256.478 58.279 258.685 58.0948C259.599 58.0184 262.931 57.0358 265.42 54.3896C266.958 52.6898 268.392 51.0528 268.154 48.2007ZM305.525 14.3021C305.745 14.9882 304.413 15.9122 303.498 17.2891C302.194 19.1862 301.535 21.6797 300.347 23.0252C298.168 25.483 294.307 25.9679 291.499 26.7441C288.589 27.5831 286.271 28.3727 284.361 29.5076C282.347 30.7053 279.37 34.6386 278.066 37.8362C277.124 40.1907 276.336 45.025 276.686 49.2224C276.83 50.9444 278.329 57.2135 281.127 56.9799C282.418 56.872 284.768 55.1586 286.745 52.23C288.332 49.8216 289.345 47.0276 289.148 44.6599C288.865 41.2697 287.914 39.615 286.838 39.7049C285.277 39.8352 284.012 40.2659 283.044 40.997C281.457 42.1049 280.686 43.9033 279.932 43.9662C279.394 44.0111 278.838 43.8408 278.793 43.3026C278.757 42.8721 279.142 40.9976 281.492 39.2841C282.77 38.3646 284.689 37.3374 287.165 37.1308C288.887 36.987 291.56 39.1481 291.933 43.6146C292.242 47.3277 290.521 51.3729 288.382 54.315C285.809 57.8895 282.527 60.1143 281.074 60.2356C276.661 60.604 274.122 52.9045 273.771 48.7071C273.538 45.9089 274.64 40.9399 275.658 37.5495C277.06 32.9348 281.087 28.5888 282.741 27.6378C285.279 26.2338 288.217 25.0674 290.822 24.4706C292.365 24.1251 295.427 23.8152 297.831 22.0973C298.804 21.42 299.996 18.8278 300.552 17.6976C301.902 15.0381 303.377 13.2351 304.453 13.1453C304.614 13.1318 305.354 13.5577 305.525 14.3021ZM319.3 37.6451C319.439 38.663 319.062 39.9949 318.825 42.3448C318.606 44.2597 318.395 46.2822 318.476 47.2509C318.678 49.6725 319.539 49.6006 319.544 50.9549C319.531 52.0939 318.616 52.8206 317.486 52.9149C316.463 53.0003 316.248 51.0675 316.05 48.6997C315.866 46.4934 315.722 44.1211 315.879 42.7534C314.283 45.0541 313.032 46.9468 310.839 49.2431C307.808 52.5307 304.428 56.1726 301.952 56.3792C300.176 56.5275 299.033 54.5096 298.97 53.7563C298.812 51.8728 299.036 49.3615 299.453 46.5631C300.044 42.6122 300.434 36.89 301.99 36.7059C302.792 36.5847 303.618 37.3828 303.631 38.1945C303.64 38.9524 302.583 42.5087 302.269 45.2443C301.951 47.926 301.673 51.0921 301.875 52.2132C301.979 52.8006 302.409 53.4149 302.894 53.3745C303.965 53.2308 307.001 49.9971 309.288 47.5303C311.422 45.1846 313.269 42.6461 314.273 41.045C316.82 37.1476 316.335 36.5378 317.735 36.421C318.057 36.3941 319.183 36.8962 319.3 37.6451ZM354.622 51.2777C354.645 52.197 354.497 53.0222 353.205 53.13C352.452 53.1929 351.478 50.6189 350.594 47.1705C350.258 45.7356 349.733 43.3409 349.418 40.8745C349.239 39.3723 349.068 38.6279 349.095 37C347.75 38.4128 346.436 40.2023 344.755 42.1309C342.087 45.2255 340.002 48.8134 336.343 49.1189C334.675 49.2582 333.271 46.0699 333.176 43.6394C333.1 41.4241 333.27 40.2177 332.799 39.1191C331.624 41.2763 331.203 42.0701 330.252 43.6667C327.464 48.5597 325.361 51.9323 324.818 51.9234C323.948 51.8877 323.343 51.1254 323.437 50.3048C323.54 49.5917 324.706 47.9771 325.625 46.6541C327.127 44.5237 328.203 42.4831 329.821 39.8012C331.633 36.8322 333.358 32.1905 334.542 32.0917C336.318 31.9435 336.251 33.7372 336.381 35.2978C336.471 36.3741 335.709 40.2308 336.001 43.7287C336.082 44.6973 336.352 45.9753 337.383 45.9976C338.414 46.0198 341.831 42.1582 344.001 39.5928C346.615 36.5026 349.776 31.5244 350.475 31.466C350.798 31.439 351.866 31.8918 351.955 32.3178C352.243 33.8111 352.118 38.8068 352.333 40.7396C352.58 42.3988 352.657 43.3136 353.007 44.91C353.662 47.5647 354.599 50.3584 354.622 51.2777ZM377.697 38.5679C377.917 41.2047 376.68 44.5593 373.972 47.1697C371.68 49.5826 367.847 51.6909 365.156 51.9155C361.497 52.221 358.913 48.5352 358.59 44.6607C358.414 42.562 358.665 41.0238 359.024 39.4766C359.745 36.436 360.754 32.938 362.906 32.7583C363.929 32.6729 364.059 33.5832 365.319 33.749C366.691 32.659 368.166 31.5063 370.211 31.3356C374.516 30.9762 377.508 36.3078 377.697 38.5679ZM374.939 39.2858C374.647 35.788 372.05 33.8915 370.221 34.0442C368.875 34.1565 367.436 35.0895 366.678 35.7488C366.822 36.1704 366.782 36.9865 366.49 37.3902C366.118 38.1257 365.279 38.4666 364.418 38.5385C363.719 38.5969 363.078 38.0544 362.651 37.4939C361.584 38.9919 361.267 42.9741 361.406 44.6423C361.613 47.1177 363.263 49.3642 365.469 49.18C366.384 49.1036 369.716 48.121 372.205 45.4748C373.742 43.775 375.177 42.1379 374.939 39.2858ZM37.7808 143.714C37.9739 145.377 37.288 146.898 36.6874 148.79C35.8402 151.625 34.1233 155.724 33.5852 155.769C32.5089 155.858 31.9349 155.473 31.863 154.612C31.836 154.289 33.2885 150.916 33.9518 148.477C34.409 146.813 35.0231 145.082 34.9422 144.113C34.8793 143.36 34.1437 142.338 33.2961 141.921C32.8567 142.499 32.5966 142.629 32.0585 142.674C31.193 142.692 30.6232 141.06 30.6232 141.06C30.2331 140.93 29.5963 141.092 29.2241 141.177C27.0896 141.572 24.4125 142.608 23.6367 143.052C23.5112 143.496 23.9149 143.788 23.7356 144.236C23.5159 144.85 23.2693 145.142 22.3007 145.223C21.1168 145.322 20.2871 144.47 19.7892 143.698C18.8206 144.43 16.9328 145.183 16.0225 145.313C14.9507 145.457 14.3095 145.565 13.5561 145.628C13.5562 146.278 13.6369 146.596 13.4756 147.26C13.4129 147.807 13.0632 148.162 11.9331 148.256C10.4802 148.377 9.86116 147.453 9.81614 146.265C9.73517 144.646 10.3935 138.902 11.1328 134.776C12.15 129.435 13.6605 124.161 15.0058 124.048C15.3825 124.017 16.2706 124.918 16.3065 125.349C16.3334 125.671 14.3298 131.528 13.5815 135.547C13.102 138.242 12.6273 142.291 12.6542 142.614C12.6542 142.614 14.9862 142.636 16.4211 142.3C17.8023 141.968 18.8516 141.555 19.7888 141.097C19.941 139.676 19.8468 139.196 20.1916 135.537C20.3974 132.81 20.7107 128.774 20.6475 125.42C20.6474 124.769 20.4231 124.68 20.5486 124.236C20.7189 123.68 21.1718 123.263 21.6516 123.168C23.0866 122.832 23.4187 124.213 23.4547 125.294C23.4818 126.267 23.1102 130.904 23.0346 134.541C23.008 136.819 22.8872 138.617 22.9816 140.397C24.4211 140.115 26.3672 139.41 28.6049 138.953C29.7753 138.692 30.7843 138.446 31.5915 138.378C31.4208 136.333 31.3307 133.956 31.2856 132.118C31.2133 128.656 31.325 126.1 31.4458 123.651C31.4949 122.292 31.1807 120.476 32.4767 120.422C33.396 120.4 34.2033 120.983 34.329 121.839C34.5624 123.337 34.0607 127.063 34.0659 131.669C34.0618 134.216 34.273 137.396 34.3181 138.584C35.3003 139.315 37.4664 140.597 37.7808 143.714ZM60.2804 130.293C60.5005 132.93 59.2633 136.285 56.5551 138.895C54.2639 141.308 50.43 143.416 47.7394 143.641C44.0801 143.946 41.4965 140.261 41.1731 136.386C40.9978 134.287 41.2487 132.749 41.6073 131.202C42.3288 128.161 43.3373 124.663 45.4898 124.484C46.5122 124.398 46.6424 125.309 47.9026 125.474C49.2747 124.384 50.7499 123.232 52.7948 123.061C57.0998 122.702 60.0917 128.033 60.2804 130.293ZM57.5226 131.011C57.2306 127.513 54.6338 125.617 52.8041 125.77C51.4588 125.882 50.0194 126.815 49.2617 127.474C49.4052 127.896 49.365 128.712 49.0736 129.116C48.7015 129.851 47.8629 130.192 47.0019 130.264C46.3024 130.322 45.661 129.78 45.2349 129.219C44.1678 130.717 43.85 134.7 43.9893 136.368C44.1959 138.843 45.8466 141.09 48.0529 140.905C48.9677 140.829 52.2995 139.846 54.788 137.2C56.3259 135.5 57.7607 133.863 57.5226 131.011ZM89.7861 132.003C89.8311 132.541 84.8135 136.048 81.1769 137.923C77.2264 139.933 73.8229 141.355 70.4327 141.638C66.6658 141.953 64.0062 139.953 63.8353 136.607C63.7048 133.746 65.2736 128.522 68.7708 124.328C70.7436 121.996 73.0215 120.072 75.8735 119.834C76.896 119.748 80.125 121.43 80.3407 124.013C80.5428 126.434 78.4667 127.529 77.7133 127.592C76.9061 127.659 75.6637 126.408 75.3362 125.081C75.1702 124.39 75.197 124.063 75.3987 123.233C75.161 122.982 74.9233 122.731 74.708 122.749C73.9008 122.816 71.345 124.655 69.2736 127.754C67.8299 129.934 66.3193 133.907 66.4406 135.36C66.6742 138.159 68.0107 139.239 70.5399 139.028C73.6072 138.772 76.5802 137.386 80.2348 135.726C83.7863 134.129 88.0146 130.904 88.8173 130.783C89.2433 130.693 89.7502 131.572 89.7861 132.003ZM105.357 130.811C105.501 132.533 104.914 135.887 101.035 138.108C99.6406 138.929 97.1878 140.055 95.0353 140.234C93.9591 140.324 92.6719 139.836 92.4072 138.611C91.1963 138.387 90.2679 137.652 90.2633 136.298C90.2542 135.54 90.5501 135.19 90.7563 134.414C90.6306 133.558 90.5721 132.208 90.666 130.737C90.7822 128.235 91.0242 126.589 91.4544 124.602C91.7546 123.006 92.2924 121.01 92.6375 119.301C92.754 118.75 92.4758 118.014 92.6013 117.57C92.8792 116.355 93.5338 115.758 93.9643 115.722C94.7177 115.66 95.5833 116.292 95.5969 117.103C95.5836 118.243 94.9786 120.731 94.2257 124.046C93.7551 126.198 93.3116 129.324 93.4598 130.45C93.5675 131.091 93.4913 131.476 93.7067 132.109C94.4107 131.454 95.4912 130.117 96.8005 128.924C98.2084 127.615 99.8047 126.614 101.258 126.493C104.002 126.264 105.182 128.712 105.357 130.811ZM102.927 130.906C102.832 129.775 102.213 128.852 101.245 128.933C100.33 129.009 99.1012 129.87 97.5632 131.57C96.6172 132.57 95.7922 133.723 95.0345 135.032C94.7969 135.432 94.788 135.974 94.4159 136.71C94.582 137.4 94.9498 137.911 95.4834 137.813C96.6583 137.606 98.4923 136.857 99.7792 136.045C101.627 134.807 103.084 132.789 102.927 130.906ZM147.894 115.555C147.979 116.578 145.984 120.592 144.559 123.637C143.268 126.346 141.941 128.624 140.667 130.247C139.802 131.566 138.982 133.423 138.049 135.235C136.332 138.683 135.642 140.8 134.266 144.437C133.602 146.227 133.028 148.442 132.589 150.321C132.141 152.092 131.769 153.478 131.02 153.595C130.325 153.707 129.307 153.196 129.406 152.429C129.54 151.443 130.607 146.693 133.072 140.527C134.327 137.388 136.658 132.208 137.349 130.741C136.394 130.333 135.622 130.181 133.868 127.997C132.478 126.271 131.128 123.728 130.083 121.594C129.1 119.563 128.369 117.944 128.306 117.191C128.243 116.437 129.176 115.926 129.929 115.863C130.898 115.782 132.473 121.015 134.612 123.925C135.9 125.714 136.622 127.225 138.227 128.284C139.994 126.727 140.716 123.687 142.146 120.695C143.432 117.933 144.938 113.905 146.499 113.775C147.199 113.717 147.773 114.102 147.894 115.555ZM170.355 114.114C170.498 115.836 169.315 119.186 168.49 122.939C168.029 125.2 167.72 127.989 167.864 129.711C167.936 130.572 168.16 131.312 168.994 131.567C169.272 131.652 169.42 131.478 169.649 131.621C169.99 131.809 170.021 132.186 170.053 132.563C170.129 133.478 169.03 133.949 168.115 134.025C166.716 134.142 165.375 132.357 165.218 129.173C165.164 127.877 165.101 125.173 165.199 123.756C163.621 124.321 162.123 125.205 160.186 126.017C157.778 127.031 155.128 127.74 153.989 128.377C153.863 129.471 154.334 130.569 154.339 131.274C154.352 132.085 153.716 132.897 152.855 132.969C152.047 133.036 151.559 132.373 151.227 131.642C150.89 130.857 151.343 130.44 151.262 129.471C151.222 128.987 150.908 127.821 150.858 127.229C150.858 127.229 150.858 125.929 151.226 125.139C151.279 123.834 151.53 119.695 151.879 117.39C152.265 114.865 152.564 111.318 153.842 111.049C154.748 110.865 155.471 112.376 155.502 112.753C155.538 113.183 154.704 116.179 154.453 118.367C154.131 120.995 154.086 123.058 154.15 125.112C155.849 124.699 157.329 124.25 159.217 123.497C161.634 122.591 162.822 122.546 165.261 120.608C165.956 119.195 166.638 118.271 166.965 116.347C167.296 114.477 167.323 112.199 168.883 112.069C169.906 111.984 170.238 112.714 170.355 114.114ZM179.705 105.367C179.472 106.471 179.01 107.43 177.885 107.578C176.598 107.74 175.781 106.399 175.62 105.112C175.386 103.615 176.108 101.875 177.619 101.803C179.238 101.722 180.059 103.766 179.705 105.367ZM181.02 113.982C181.052 116.309 180.174 118.767 179.721 121.785C179.255 124.642 178.578 128.22 178.65 129.081C178.74 130.158 179.83 130.229 179.794 131.099C179.727 132.243 178.821 133.077 177.682 133.064C176.597 133.046 175.772 132.248 175.669 131.01C175.444 128.319 176.555 124.759 177.147 120.808C177.451 118.615 177.864 117.063 177.971 115.103C178.029 113.852 178.312 112.691 179.392 112.655C180.204 112.641 181.011 113.224 181.02 113.982ZM212.451 127.181C212.568 128.58 208.914 129.589 206.008 129.832C199.335 130.389 197.083 127.434 196.15 125.995C195.469 126.268 194.581 127.318 193.711 128.583C192.648 130.134 191.891 131.444 190.007 131.601C188.07 131.763 187.451 128.889 187.168 126.799C187.006 125.512 187.149 122.682 187.328 119.633C187.516 116.691 187.462 112.794 188.74 112.525C189.538 112.35 190.462 113.031 190.422 113.847L190.127 119.399C190.015 121.955 189.966 125.265 190.02 125.91C190.128 127.202 190.514 127.928 191.052 127.883C191.375 127.857 192.388 126.363 193.343 125.47C194.042 124.762 194.54 124.233 195.15 123.748C194.975 122.95 195.051 122.564 194.943 121.273C194.835 119.981 196.212 116.994 198.462 114.097C199.879 112.245 201.632 109.877 202.816 109.778C203.677 109.706 205.112 110.02 205.22 111.311C205.35 112.872 204.552 113.697 202.517 115.926C200.929 117.684 198.459 120.546 198.603 122.268C199.016 127.219 203.021 127.805 206.231 127.321C208.375 127.033 210.227 126.499 211.344 126.244C212.034 126.078 212.411 126.696 212.451 127.181ZM230.222 112.367C230.707 118.179 229.658 122.493 229.058 124.385C229.394 124.52 229.896 124.695 230.197 125.049C231.103 126.165 228.794 127.713 227.937 127.839C227.511 127.928 226.197 127.767 225.865 127.686C223.48 128.969 221.013 129.934 219.13 130.091C217.031 130.266 214.69 128.836 214.484 126.361C214.29 124.047 218.303 116.938 222.447 116.592C224.222 116.444 226.133 118.561 227.237 120.744C227.595 119.197 227.864 116.574 227.558 112.914C227.374 110.708 224.714 107.408 222.4 107.601C219.817 107.817 220.472 109.171 219.181 109.279C218.158 109.364 217.674 108.104 217.656 107.889C217.543 106.544 220.176 104.969 222.113 104.807C225.503 104.524 229.876 108.223 230.222 112.367ZM225.587 124.35C225.344 121.444 224.034 119.386 222.366 119.525C220.16 119.709 217.053 124.683 217.336 126.123C217.52 127.029 218.977 127.611 219.246 127.589C221.022 127.441 223.174 126.611 225.461 125.444C225.425 125.014 225.623 124.781 225.587 124.35ZM254.212 125.32C254.239 125.643 253.948 126.697 253.194 126.76C251.365 126.912 250.091 123.984 249.252 121.724C248.058 118.464 247.668 115.083 247.098 111.5C246.774 109.576 246.694 109.258 246.129 108.33C244.523 109.872 242.492 112.806 240.86 115.976C239.462 118.694 237.839 121.973 238.113 123.304C238.283 124.049 238.799 124.385 238.579 124.999C238.369 125.721 237.745 126.044 237.046 126.103C235.862 126.202 234.951 124.381 234.92 124.004C234.902 123.789 237.134 117.425 239.358 113.555C241.635 109.68 244.733 104.599 246.455 104.455C248.285 104.302 249.563 107.284 249.995 112.45C250.246 115.464 251.301 119.657 252.194 121.912C253.216 124.428 254.167 124.782 254.212 125.32ZM271.473 116.943C271.616 118.665 271.029 122.019 267.151 124.24C265.756 125.061 263.303 126.187 261.151 126.366C260.075 126.456 258.787 125.968 258.523 124.743C257.312 124.519 256.383 123.784 256.379 122.43C256.37 121.672 256.666 121.322 256.872 120.546C256.746 119.69 256.688 118.34 256.782 116.869C256.898 114.367 257.14 112.721 257.57 110.734C257.87 109.138 258.408 107.142 258.753 105.433C258.869 104.882 258.591 104.146 258.717 103.702C258.995 102.487 259.649 101.89 260.08 101.854C260.833 101.792 261.699 102.424 261.712 103.235C261.699 104.374 261.094 106.863 260.341 110.178C259.871 112.33 259.427 115.456 259.575 116.581C259.683 117.223 259.607 117.608 259.822 118.241C260.526 117.586 261.607 116.249 262.916 115.056C264.324 113.747 265.92 112.746 267.373 112.625C270.118 112.396 271.297 114.844 271.473 116.943ZM269.042 117.037C268.948 115.907 268.329 114.984 267.36 115.065C266.445 115.141 265.217 116.002 263.679 117.702C262.733 118.702 261.908 119.855 261.15 121.164C260.912 121.564 260.904 122.106 260.531 122.842C260.697 123.532 261.065 124.043 261.599 123.945C262.774 123.738 264.608 122.989 265.895 122.177C267.742 120.939 269.199 118.921 269.042 117.037ZM294.639 103.738C294.783 105.46 293.6 108.81 292.775 112.564C292.313 114.824 292.004 117.613 292.148 119.335C292.22 120.196 292.444 120.936 293.278 121.192C293.557 121.277 293.704 121.102 293.933 121.245C294.274 121.434 294.306 121.81 294.337 122.187C294.413 123.102 293.315 123.573 292.4 123.649C291.001 123.766 289.66 121.981 289.502 118.797C289.448 117.501 289.385 114.797 289.483 113.38C287.905 113.945 286.407 114.829 284.47 115.641C282.062 116.655 279.412 117.364 278.273 118.001C278.148 119.095 278.619 120.194 278.623 120.898C278.637 121.709 278 122.521 277.139 122.593C276.332 122.66 275.843 121.997 275.511 121.266C275.175 120.481 275.627 120.064 275.547 119.095C275.506 118.611 275.192 117.445 275.143 116.853C275.143 116.853 275.142 115.553 275.51 114.763C275.564 113.458 275.814 109.319 276.164 107.014C276.549 104.489 276.849 100.942 278.127 100.673C279.033 100.489 279.755 102 279.786 102.377C279.822 102.807 278.989 105.803 278.738 107.991C278.415 110.619 278.371 112.682 278.434 114.736C280.134 114.323 281.613 113.875 283.501 113.121C285.918 112.215 287.107 112.17 289.546 110.232C290.241 108.819 290.922 107.895 291.249 105.972C291.581 104.102 291.607 101.823 293.168 101.693C294.19 101.608 294.522 102.339 294.639 103.738ZM315.242 103.21C315.386 104.932 314.023 106.78 311.673 108.493C310.194 109.592 307.575 110.678 306.445 110.772C304.615 110.925 303.839 110.719 302.947 110.414C302.342 111.602 301.504 113.894 301.665 115.831C301.921 118.899 305.2 119.871 307.406 119.687C310.366 119.44 311.962 117.789 312.993 117.812C313.536 117.821 313.89 118.17 314.043 118.699C314.46 120.453 308.958 122.05 306.967 122.216C301.855 122.643 299.146 119.401 298.822 115.527C298.728 114.397 299.194 110.89 300.507 108.45C301.677 106.239 303.525 103.7 305.493 101.965C307.156 100.471 308.928 99.6188 310.596 99.4795C312.587 99.3133 315.013 100.465 315.242 103.21ZM312.749 103.201C312.785 102.331 311.856 101.596 311 101.722C310.089 101.852 308.022 103.054 306.57 104.476C305.417 105.602 305.032 106.176 304.131 107.714C304.705 108.1 305.306 108.158 305.575 108.135C306.974 108.018 308.817 107.377 309.897 106.691C311.857 105.497 312.704 103.964 312.749 103.201ZM358.429 103.289C358.739 107.002 356.596 111.191 354.897 112.904C353.247 114.559 350.875 117.304 349.453 117.152C348.74 117.049 348.444 116.749 348.359 115.726C348.341 115.511 350.955 113.721 353.013 111.111C354.726 108.909 355.896 106.048 355.667 103.303C355.559 102.012 355.429 100.451 354.402 100.483C353.482 100.505 351.837 102.864 349.81 106.501C347.398 110.713 345.991 114.623 344.601 118.099C343.562 123.821 343.212 127.427 343.168 133.391C343.137 134.965 343.097 135.131 343.178 136.1C343.263 137.122 342.38 138.226 341.295 138.208C340.209 138.19 339.474 137.168 339.492 136.082C339.491 134.132 339.849 127.383 340.368 121.92C340.646 118.754 341.09 116.929 341.309 113.714C341.613 108.92 342.047 103.736 342.876 98.7354C343.669 93.9548 344.807 86.8154 346.422 86.6806C346.798 86.6492 347.588 87.0168 347.637 87.6087C347.758 89.0617 347.176 90.5192 346.553 93.4432C346.055 95.9232 345.504 99.7081 345.128 102.341C344.613 106.556 344.147 111.363 344.062 112.942C345.475 110.386 346.846 107.345 348.348 104.564C350.554 100.479 352.832 97.254 354.392 97.1237C357.513 96.8632 358.204 100.599 358.429 103.289ZM378.89 99.9554C379.375 105.767 378.327 110.081 377.726 111.974C378.062 112.108 378.565 112.283 378.865 112.637C379.771 113.754 377.462 115.301 376.606 115.427C376.18 115.517 374.866 115.356 374.534 115.275C372.148 116.558 369.682 117.522 367.798 117.68C365.7 117.855 363.359 116.425 363.152 113.949C362.959 111.635 366.971 104.527 371.115 104.181C372.891 104.033 374.801 106.149 375.905 108.333C376.263 106.786 376.532 104.162 376.227 100.503C376.042 98.2966 373.383 94.9965 371.069 95.1896C368.486 95.4053 369.141 96.7595 367.849 96.8673C366.827 96.9527 366.342 95.6926 366.324 95.4774C366.212 94.132 368.844 92.5576 370.781 92.3959C374.171 92.1128 378.544 95.8119 378.89 99.9554ZM374.255 111.939C374.013 109.033 372.703 106.975 371.035 107.114C368.828 107.298 365.721 112.272 366.004 113.711C366.188 114.617 367.646 115.2 367.915 115.177C369.69 115.029 371.843 114.199 374.13 113.033C374.094 112.602 374.291 112.369 374.255 111.939ZM397.012 93.2405C397.115 94.4782 396.268 96.012 394.465 97.7882C393.313 98.9139 391.3 100.762 391.394 101.242C391.488 101.721 393.112 102.345 393.955 102.708C396.148 103.663 397.476 105.286 397.601 106.792C397.723 108.245 396.239 110.591 394.494 112.416C392.239 114.61 389.369 115.933 387.221 116.167C386.629 116.216 385.912 116.059 385.584 115.382C385.203 114.709 385.566 113.866 386.288 113.427C386.754 113.171 387.037 113.31 387.633 113.314C389.203 113.292 391.454 111.695 392.611 110.623C394.072 109.309 394.983 107.878 394.848 106.914C394.745 106.327 393.601 105.609 392.179 104.807C390.354 103.713 388.475 103.274 388.291 101.067C388.178 99.7219 390.371 98.0758 392.035 96.5822C393.196 95.5641 394.16 94.7791 394.079 93.8105C394.025 93.1648 393.146 93.0214 392.5 93.0753C390.725 93.2235 389.621 93.6408 388.021 94.5872C386.783 95.3408 386.353 96.027 385.182 96.9375C384.671 97.3053 384.559 97.9107 383.855 97.9153C383.039 97.8751 382.416 97.5478 382.321 96.4177C382.258 95.6644 385.509 93.0629 387.585 91.9684C389.558 90.9366 390.93 90.497 393.298 90.2993C396.15 90.0612 396.935 92.3257 397.012 93.2405ZM420.048 100.258C420.269 102.895 419.031 106.25 416.323 108.86C414.032 111.273 410.198 113.381 407.507 113.606C403.848 113.911 401.264 110.226 400.941 106.351C400.766 104.252 401.017 102.714 401.375 101.167C402.097 98.1264 403.105 94.6284 405.258 94.4487C406.28 94.3633 406.41 95.2737 407.671 95.4394C409.043 94.3495 410.518 93.1968 412.563 93.026C416.868 92.6666 419.86 97.9982 420.048 100.258ZM417.291 100.976C416.999 97.4784 414.402 95.5819 412.572 95.7346C411.227 95.847 409.787 96.7799 409.03 97.4393C409.173 97.8608 409.133 98.677 408.842 99.0806C408.469 99.8161 407.631 100.157 406.77 100.229C406.07 100.287 405.429 99.7448 405.003 99.1843C403.936 100.682 403.618 104.665 403.757 106.333C403.964 108.808 405.615 111.055 407.821 110.87C408.736 110.794 412.067 109.811 414.556 107.165C416.094 105.465 417.529 103.828 417.291 100.976ZM454.622 108.155C454.645 109.075 454.497 109.9 453.206 110.008C452.452 110.071 451.479 107.497 450.595 104.048C450.258 102.613 449.733 100.219 449.419 97.7522C449.239 96.2499 449.069 95.5055 449.095 93.8777C447.75 95.2905 446.437 97.08 444.755 99.0085C442.088 102.103 440.003 105.691 436.344 105.997C434.675 106.136 433.271 102.948 433.177 100.517C433.1 98.3017 433.27 97.0954 432.799 95.9968C431.625 98.154 431.203 98.9478 430.253 100.544C427.464 105.437 425.362 108.81 424.819 108.801C423.949 108.765 423.343 108.003 423.437 107.182C423.54 106.469 424.706 104.855 425.625 103.532C427.127 101.401 428.203 99.3608 429.822 96.6788C431.633 93.7099 433.359 89.0682 434.543 88.9694C436.319 88.8211 436.252 90.6149 436.382 92.1755C436.472 93.2517 435.71 97.1085 436.002 100.606C436.083 101.575 436.352 102.853 437.383 102.875C438.415 102.897 441.831 99.0359 444.002 96.4704C446.616 93.3803 449.776 88.402 450.476 88.3436C450.799 88.3167 451.866 88.7694 451.956 89.1955C452.243 90.6887 452.118 95.6844 452.334 97.6172C452.581 99.2764 452.657 100.191 453.007 101.788C453.662 104.442 454.6 107.236 454.622 108.155ZM466.29 69.1414C466.312 70.711 466.156 72.729 466.04 77.8324C465.924 82.9357 466.176 89.8507 466.248 90.7117C466.338 91.7879 467.266 93.8237 467.531 94.3977C467.867 95.1824 466.796 95.9764 465.935 96.0482C464.428 96.174 463.522 92.4565 463.405 90.4072C463.261 87.3847 463.076 81.9271 463.098 78.9449C463.173 72.0568 463.312 67.8728 464.98 67.7335C465.948 67.6527 466.285 68.4374 466.29 69.1414ZM467.399 108.389C467.318 109.371 466.771 109.959 465.82 110.255C464.184 110.771 463.542 108.278 463.452 106.551C463.385 105.094 463.447 103.246 464.895 103.071C465.81 102.995 467.196 103.367 467.048 104.192C466.864 105.237 466.802 105.784 466.941 106.802C467.049 107.443 467.452 107.734 467.399 108.389Z" fill="#F5F7F8"/>
</svg>
