<svg width="34" height="34" viewBox="0 0 34 34" fill="none" xmlns="http://www.w3.org/2000/svg">
<path d="M13.5357 33.9988C13.4238 33.9988 13.3105 33.9777 13.2 33.9356C12.7651 33.7689 12.4732 33.3059 12.4732 32.7846V21.7358C12.4732 21.3878 12.6036 21.0575 12.8316 20.826L17.311 16.29L9.91055 21.2065C9.60314 21.4105 9.22348 21.425 8.9019 21.2437L0.587676 16.5085C0.210852 16.2948 -0.0186432 15.8464 0.00118971 15.3672C0.0210226 14.8864 0.284517 14.4655 0.676924 14.2907L32.5512 0.0850814C32.9096 -0.0800433 33.3218 -0.000718722 33.6208 0.28744C33.9182 0.572361 34.0557 1.02079 33.9792 1.45626L28.4359 33.0242C28.3679 33.4063 28.1455 33.7284 27.8338 33.8903C27.5236 34.0522 27.1623 34.0344 26.8677 33.8401L17.9797 28.0559L14.3857 33.5164C14.1803 33.8256 13.863 33.9988 13.5357 33.9988ZM17.6921 25.2569C17.872 25.2569 18.0534 25.3087 18.2177 25.4155L26.6396 30.897L31.5114 3.15446L3.68302 15.5582L9.33823 18.7798L25.4737 8.05963C25.9454 7.74233 26.5503 7.89289 26.8677 8.39798C27.1892 8.90306 27.1212 9.60403 26.7118 10.0185L14.5982 22.283V29.1535L16.8436 25.7425C17.0504 25.4269 17.3691 25.2569 17.6921 25.2569Z" fill="#F5F7F8"/>
</svg>
