<svg width="36" height="36" viewBox="0 0 36 36" fill="none" xmlns="http://www.w3.org/2000/svg">
<path d="M18 1C9.17619 1 1 2.41998 1 15.5226C1 23.9134 4.36762 27.5118 9.09524 29.0124V33.224C9.05928 33.5783 9.14192 33.9345 9.33029 34.2371C9.51866 34.5397 9.80218 34.7717 10.1367 34.8969C10.4711 35.0222 10.8378 35.0336 11.1795 34.9295C11.5212 34.8253 11.8187 34.6115 12.0257 34.3212L15.8143 30.0129H18C26.8238 30.0129 35 28.609 35 15.4903C35 2.37158 26.8238 1 18 1Z" stroke="#F5F7F8" stroke-width="1.42143" stroke-linecap="round" stroke-linejoin="round"/>
<path d="M18.0005 12.2953C18.6446 12.2953 19.2623 12.5503 19.7177 13.0042C20.1732 13.4581 20.429 14.0738 20.429 14.7157M18.0005 5.84082C20.3622 5.84082 22.6271 6.77585 24.2971 8.44022C25.9671 10.1046 26.9052 12.362 26.9052 14.7157M18.0005 9.06806C19.5034 9.06806 20.9447 9.66308 22.0074 10.7222C23.0701 11.7814 23.6671 13.2179 23.6671 14.7157M12.3338 20.3634C14.4386 22.4611 19.0852 25.2042 21.2386 25.2042C22.1831 25.214 23.1021 24.898 23.8397 24.3099C24.5773 23.7217 25.0883 22.8976 25.2862 21.977V20.3634C25.2862 20.3634 23.2948 19.3952 22.0481 18.7498C20.8014 18.1043 18.81 20.3634 18.81 20.3634C17.2948 19.8714 15.911 19.0439 14.7624 17.943C13.6577 16.7982 12.8274 15.4191 12.3338 13.9089C12.3338 13.9089 14.6005 11.9242 13.9528 10.6817C13.3052 9.43919 12.3338 7.45444 12.3338 7.45444H10.7148C9.79107 7.65161 8.96415 8.16091 8.37404 8.89607C7.78394 9.63123 7.46691 10.5471 7.47666 11.4885C7.47666 13.6346 10.229 18.2657 12.3338 20.3634Z" stroke="#F5F7F8" stroke-width="1.42143" stroke-linecap="round" stroke-linejoin="round"/>
</svg>
